HIERARCHY
ROOT Model_Hips
{
	OFFSET 0.000000 96.915077 0.000000
	CHANNELS 6 Xposition Yposition Zposition Xrotation Yrotation Zrotation
	JOINT Model_Spine
	{
		OFFSET 0.000000 11.137703 -1.289900
		CHANNELS 3 Xrotation Yrotation Zrotation
		JOINT Model_Spine1
		{
			OFFSET 0.000000 12.993942 -1.504922
			CHANNELS 3 Xrotation Yrotation Zrotation
			JOINT Model_Spine2
			{
				OFFSET 0.000000 14.850220 -1.719911
				CHANNELS 3 Xrotation Yrotation Zrotation
				JOINT Model_Neck
				{
					OFFSET 0.000000 16.706543 -1.934903
					CHANNELS 3 Xrotation Yrotation Zrotation
					JOINT Model_Head
					{
						OFFSET 0.000000 10.471298 2.002100
						CHANNELS 3 Xrotation Yrotation Zrotation
						JOINT Model_HeadTop_End
						{
							OFFSET 0.000000 20.842606 3.985100
							CHANNELS 3 Xrotation Yrotation Zrotation
							End Site
							{
								OFFSET 0.000000 21.220154 0.000000
							}
						}
					}
				}
				JOINT Model_LeftShoulder
				{
					OFFSET 7.008500 14.768600 -1.919946
					CHANNELS 3 Xrotation Yrotation Zrotation
					JOINT Model_LeftArm
					{
						OFFSET 14.126271 -3.718048 0.029937
						CHANNELS 3 Xrotation Yrotation Zrotation
						JOINT Model_LeftForeArm
						{
							OFFSET 28.282801 0.000000 0.000000
							CHANNELS 3 Xrotation Yrotation Zrotation
							JOINT Model_LeftHand
							{
								OFFSET 26.204689 0.000000 0.000000
								CHANNELS 3 Xrotation Yrotation Zrotation
								End Site
								{
									OFFSET 26.204704 0.000000 0.000000
								}
							}
						}
					}
				}
				JOINT Model_RightShoulder
				{
					OFFSET -7.008500 14.768555 -1.949840
					CHANNELS 3 Xrotation Yrotation Zrotation
					JOINT Model_RightArm
					{
						OFFSET -14.126281 -3.718018 -0.029932
						CHANNELS 3 Xrotation Yrotation Zrotation
						JOINT Model_RightForeArm
						{
							OFFSET -28.283798 0.000000 -0.000001
							CHANNELS 3 Xrotation Yrotation Zrotation
							JOINT Model_RightHand
							{
								OFFSET -26.204193 0.000000 -0.000001
								CHANNELS 3 Xrotation Yrotation Zrotation
								End Site
								{
									OFFSET -26.204208 0.000000 -0.000001
								}
							}
						}
					}
				}
			}
		}
	}
	JOINT Model_LeftUpLeg
	{
		OFFSET 8.327700 -6.193199 -0.402800
		CHANNELS 3 Xrotation Yrotation Zrotation
		JOINT Model_LeftLeg
		{
			OFFSET 0.735802 -42.108742 -0.610721
			CHANNELS 3 Xrotation Yrotation Zrotation
			JOINT Model_LeftFoot
			{
				OFFSET -0.735806 -36.833748 -0.172876
				CHANNELS 3 Xrotation Yrotation Zrotation
				JOINT Model_LeftToeBase
				{
					OFFSET -0.565857 -11.977769 16.297714
					CHANNELS 3 Xrotation Yrotation Zrotation
					JOINT Model_LeftToe_End
					{
						OFFSET -0.111712 -0.312793 7.857784
						CHANNELS 3 Xrotation Yrotation Zrotation
						End Site
						{
							OFFSET -0.111712 -0.312793 7.857784
						}
					}
				}
			}
		}
	}
	JOINT Model_RightUpLeg
	{
		OFFSET -8.327700 -6.193199 -0.516500
		CHANNELS 3 Xrotation Yrotation Zrotation
		JOINT Model_RightLeg
		{
			OFFSET -0.735785 -42.108738 -0.434061
			CHANNELS 3 Xrotation Yrotation Zrotation
			JOINT Model_RightFoot
			{
				OFFSET 0.735776 -36.833748 -0.021630
				CHANNELS 3 Xrotation Yrotation Zrotation
				JOINT Model_RightToeBase
				{
					OFFSET 0.565817 -11.977745 15.903093
					CHANNELS 3 Xrotation Yrotation Zrotation
					JOINT Model_RightToe_End
					{
						OFFSET 0.111702 -0.312791 7.811342
						CHANNELS 3 Xrotation Yrotation Zrotation
						End Site
						{
							OFFSET 0.111702 -0.312791 7.811342
						}
					}
				}
			}
		}
	}
}
MOTION
Frames: 10
Frame Time: 0.016667
0.286164 90.421036 1.833533 5.448765 2.898366 -2.962757 4.925087 1.351947 1.332457 9.857122 2.800250 1.722123 9.857124 2.800251 1.722121 -2.495270 -1.054331 -0.099083 -2.495301 -1.054332 -0.099086 -0.000000 0.000000 -0.000000 1.088504 -1.226501 -9.109577 21.951231 16.129917 -69.744612 5.201962 -103.989869 -6.123338 -0.000000 -0.000002 0.000000 0.776472 6.054094 9.529815 5.506730 -10.523594 55.529284 -70.896366 86.710454 75.613678 -0.000000 -0.000003 0.000002 -36.905438 6.207704 -1.775112 100.656279 14.398216 3.969168 -18.128365 -0.920838 4.408788 -0.898554 -2.887888 -6.627551 -0.000003 0.000000 -0.000000 -16.827520 -5.242994 4.106599 49.691545 0.058276 -1.509525 -30.201662 0.172684 -1.262971 -10.243117 12.978182 -1.678546 -0.000000 0.000002 0.000000 
0.449711 91.070992 9.449312 5.391750 2.450600 -2.421113 4.722820 1.905123 0.929659 9.453707 3.921789 1.146489 9.453705 3.921789 1.146488 -2.506773 -1.447433 0.483994 -2.506787 -1.447433 0.483994 0.000000 -0.000000 0.000000 1.116150 -0.827667 -8.882073 22.942482 17.367716 -68.727665 -1.095137 -100.766177 -13.473912 -0.000002 -0.000001 0.000000 0.765710 7.100513 9.777248 1.538864 -7.786731 55.118879 -86.133460 86.270747 89.881062 -0.000002 0.000001 -0.000001 -41.687363 4.947235 -1.311473 96.180996 12.083089 3.163023 -18.631407 0.269398 -2.067015 0.810006 -0.361826 -1.972820 0.000002 0.000001 -0.000000 -7.133492 -5.820795 3.712737 41.038754 1.185946 -1.859708 -30.429702 0.499547 -1.095732 -12.011806 13.771891 -2.363944 0.000000 0.000001 0.000000 
0.598274 92.298180 17.343578 5.417642 2.384600 -1.596571 4.528541 2.464442 0.613789 9.061619 5.074899 0.771868 9.061616 5.074900 0.771867 -2.537351 -1.475766 -0.300584 -2.537360 -1.475765 -0.300585 0.000001 0.000000 -0.000000 1.148254 -0.358168 -8.569115 23.855964 18.056754 -67.164385 -14.069992 -97.633251 -27.270729 -0.000001 0.000002 0.000001 0.979932 7.617211 8.325395 -0.518873 -6.992992 54.863331 -115.324875 85.374154 118.291705 0.000001 0.000000 0.000001 -44.816658 3.512334 -1.337194 89.175059 9.223070 2.108855 -21.140310 1.872380 -9.692176 0.608849 1.953126 6.293162 0.000002 -0.000000 0.000000 1.890694 -7.117835 2.839948 31.885891 4.010502 -2.145220 -24.326026 0.291790 -1.483574 -17.109190 14.136452 -2.190083 0.000001 0.000001 0.000000 
0.700407 93.691864 24.918228 5.433679 2.866190 -0.989003 4.276392 2.960611 0.247164 8.554271 6.131199 0.306683 8.554264 6.131200 0.306683 -2.034224 -1.779460 -0.328107 -2.034216 -1.779462 -0.328104 0.000002 -0.000001 0.000000 1.177067 0.134076 -8.229843 24.654469 18.471917 -65.302428 -41.846988 -95.374740 -55.790334 0.000000 0.000001 0.000001 1.021733 8.200312 8.167458 -1.437511 -7.000720 54.866800 -128.106605 83.074737 130.459536 0.000001 0.000000 0.000002 -45.365703 3.040007 -2.481947 77.919536 12.121786 0.802617 -18.919655 0.583242 -3.320631 -1.848670 -1.431661 2.158004 -0.000000 0.000000 0.000000 10.207724 -8.641385 2.191597 22.064052 7.403501 -1.748046 -12.968065 -0.324624 -1.988554 -26.058577 13.295314 -3.105165 0.000000 -0.000000 0.000000 
0.886469 94.814819 32.581642 5.078519 3.389622 -0.581533 4.085006 3.396080 -0.092806 8.175032 7.083298 -0.193794 8.175031 7.083298 -0.193793 -2.201141 -2.075172 -0.102424 -2.201127 -2.075169 -0.102425 -0.000001 -0.000000 0.000001 1.200654 0.640298 -7.870080 25.353065 18.639689 -63.215600 -82.354822 -95.358313 -96.942166 0.000001 -0.000001 -0.000002 0.988031 8.490665 8.460561 -1.710915 -6.812156 54.891184 -130.844909 80.036143 133.016363 0.000000 0.000000 0.000001 -44.416116 1.815266 -3.211648 66.279698 10.319771 -0.846787 -19.113743 0.302412 -1.611704 -2.752085 -2.571971 0.643984 0.000001 -0.000000 0.000000 17.683394 -10.732552 1.543013 13.263263 13.469433 -1.290525 1.739304 -0.942997 0.581548 -34.445474 12.603575 -7.708917 0.000001 -0.000002 0.000000 
1.066037 95.941742 40.761677 5.027920 4.536046 0.120222 3.774520 3.719173 -0.455851 7.564847 7.839065 -0.783099 7.564839 7.839064 -0.783098 -1.843161 -2.328046 -0.119747 -1.843160 -2.328058 -0.119746 0.000001 -0.000001 0.000000 1.217350 1.143021 -7.506332 25.979388 18.613988 -61.032972 -108.390376 -97.300081 -123.507415 -0.000001 -0.000002 -0.000000 0.943291 8.334580 8.732484 -2.085236 -6.740314 55.232270 -133.592462 76.894372 135.293152 0.000000 0.000001 0.000001 -42.071517 0.727949 -4.898951 51.470759 9.594905 -1.289191 -17.520617 0.312142 -1.300724 -3.188408 -3.255419 -0.725729 -0.000000 0.000000 0.000000 22.758677 -13.416296 0.478351 4.720854 14.038745 -2.719615 23.472780 2.332035 16.943034 -40.122382 14.810640 -15.651587 0.000000 0.000001 0.000000 
1.161128 96.748459 48.692047 5.135374 5.760536 0.443518 3.461040 3.850649 -0.625554 6.972621 8.293559 -1.310270 6.972614 8.293553 -1.310266 -1.850393 -2.447568 -0.120327 -1.850376 -2.447564 -0.120326 0.000003 0.000000 -0.000000 1.225899 1.615385 -7.165143 26.553882 18.461474 -58.909910 -120.438420 -99.660656 -135.964819 -0.000000 0.000000 -0.000000 0.914239 7.838656 8.834357 -2.687180 -5.968865 54.418624 -139.031738 74.999664 140.944833 -0.000001 0.000001 -0.000001 -38.333924 -1.042932 -6.306137 35.557879 8.938796 -1.258820 -15.827287 0.459146 -1.682594 -3.950850 -3.999308 -1.285454 -0.000001 -0.000000 -0.000000 23.758827 -14.770359 -0.085898 9.295644 14.159611 -2.781189 26.583598 3.490120 18.478604 -20.914726 7.887053 -19.618470 -0.000005 -0.000000 0.000001 
1.179133 97.015038 56.601200 5.326707 6.450736 0.471276 3.139394 3.951388 -0.743695 6.367057 8.716933 -1.768186 6.367057 8.716933 -1.768185 -1.460691 -2.619773 -0.038480 -1.460711 -2.619771 -0.038485 -0.000001 0.000001 0.000000 1.226816 2.022711 -6.883194 27.062318 18.240287 -56.988920 -126.417608 -101.712561 -142.243348 -0.000000 -0.000002 -0.000001 0.920819 7.854961 8.790087 -3.106716 -5.641925 54.013450 -147.152874 74.284509 148.957765 -0.000002 -0.000000 -0.000002 -35.904805 -2.780384 -7.193182 23.775711 8.045076 -0.626774 -15.863394 0.683561 -2.336809 -4.049488 -4.160569 -1.635384 -0.000000 -0.000000 -0.000000 23.317371 -14.420052 -0.343817 17.986277 12.125782 -3.022989 25.500537 2.936632 16.139588 -6.903936 2.508028 -6.044306 0.000000 -0.000001 0.000001 
1.247992 96.855789 64.874390 5.381576 6.331064 0.295343 2.870032 4.046867 -0.855229 5.851196 9.216217 -2.064826 5.851192 9.216206 -2.064824 -1.007044 -2.756923 0.196003 -1.007027 -2.756926 0.196011 -0.000001 -0.000000 0.000000 1.222318 2.325120 -6.702127 27.431648 17.978649 -55.361057 -129.706631 -103.198148 -145.750964 -0.000000 -0.000000 -0.000001 0.903816 8.051995 8.948168 -2.921668 -5.210933 53.425354 -149.082006 73.249933 151.409216 0.000001 0.000000 -0.000000 -38.157282 -3.584293 -7.355662 24.420530 7.157751 -0.267495 -21.845178 0.914496 -2.764070 -3.578791 -3.399305 0.070660 -0.000004 -0.000000 0.000000 24.570193 -13.381591 -1.020826 24.077324 9.509773 -1.918563 24.651461 2.945599 15.751644 -5.974791 2.366707 -3.991732 0.000001 0.000001 -0.000000 
1.412796 96.824074 72.472450 4.870917 5.480425 -0.061723 2.855757 4.047676 -0.824175 5.838779 9.522336 -2.124912 5.838782 9.522329 -2.124909 -0.732022 -2.749711 0.344017 -0.732030 -2.749711 0.344019 0.000001 0.000003 -0.000000 1.215438 2.481931 -6.662236 27.522126 17.661452 -54.042004 -131.691457 -104.045604 -147.916421 -0.000001 -0.000001 -0.000001 0.968887 8.542743 8.596886 -2.708506 -4.517505 53.313718 -150.712728 72.460746 153.623713 -0.000003 0.000000 -0.000000 -38.343675 -4.231851 -6.851643 24.019673 4.331202 -0.268525 -24.640734 0.854840 -2.061051 -3.343740 -3.417073 -0.823300 -0.000004 0.000001 0.000000 24.198454 -12.169702 -1.536418 33.306693 7.266800 -2.695790 22.330865 3.351508 17.699237 -7.822333 3.484804 -3.523804 0.000001 0.000001 0.000000 
